<svg width="52" height="52" viewBox="0 0 52 52" fill="none" xmlns="http://www.w3.org/2000/svg">
<path d="M16.51 35.6756L17.2738 34.8174C16.7158 33.034 16.7142 31.0707 17.3103 29.2578C12.9208 31.6694 7.36359 30.7085 4.04625 26.7848C1.58234 28.7389 0 31.7583 0 35.1403V50.3747C0 51.2156 0.6825 51.8981 1.52344 51.8981H14.0745C13.9049 51.4218 13.8125 50.9089 13.8125 50.3747V42.7575C13.8125 40.1453 14.7702 37.6296 16.51 35.6756Z" fill="#003866"/>
<path d="M12.1875 27.5232C16.3944 27.5232 19.8047 24.1129 19.8047 19.906C19.8047 15.6991 16.3944 12.2888 12.1875 12.2888C7.98064 12.2888 4.57031 15.6991 4.57031 19.906C4.57031 24.1129 7.98064 27.5232 12.1875 27.5232Z" fill="#003866"/>
<path d="M47.9536 26.7848C44.6303 30.7156 39.0693 31.666 34.6896 29.2568C35.2847 31.0734 35.2848 33.0316 34.7261 34.8174L35.4899 35.6756C37.2297 37.6296 38.1874 40.1453 38.1874 42.7575V50.3747C38.1874 50.9089 38.095 51.4218 37.9254 51.8981H50.4765C51.3174 51.8981 51.9999 51.2156 51.9999 50.3747V35.1403C51.9999 31.7583 50.4175 28.7389 47.9536 26.7848Z" fill="#003866"/>
<path d="M39.8125 27.5232C44.0194 27.5232 47.4297 24.1129 47.4297 19.906C47.4297 15.6991 44.0194 12.2888 39.8125 12.2888C35.6056 12.2888 32.1953 15.6991 32.1953 19.906C32.1953 24.1129 35.6056 27.5232 39.8125 27.5232Z" fill="#003866"/>
<path d="M26 41.2342C23.0709 41.2342 20.4598 39.8499 18.786 37.7008C17.5876 39.0475 16.8594 40.8188 16.8594 42.7576V50.3748C16.8594 51.2157 17.5419 51.8982 18.3828 51.8982H33.6172C34.4581 51.8982 35.1406 51.2157 35.1406 50.3748V42.7576C35.1406 40.8188 34.4124 39.0475 33.214 37.7008C31.5402 39.8499 28.9291 41.2342 26 41.2342Z" fill="#003866"/>
<path d="M26 38.1872C29.3655 38.1872 32.0938 35.459 32.0938 32.0935C32.0938 28.728 29.3655 25.9998 26 25.9998C22.6345 25.9998 19.9062 28.728 19.9062 32.0935C19.9062 35.459 22.6345 38.1872 26 38.1872Z" fill="#003866"/>
<path d="M21.6652 12.3898C23.4046 13.9974 25.1288 15.065 25.2013 15.1097C25.6911 15.4111 26.3088 15.4111 26.7986 15.1097C26.8712 15.065 28.5953 13.9974 30.3347 12.3898C32.8498 10.0655 34.125 7.80581 34.125 5.67371C34.125 0.831613 29.3099 -1.44125 26 1.24863C22.6827 -1.44725 17.875 0.84441 17.875 5.67371C17.875 7.80581 19.1502 10.0655 21.6652 12.3898Z" fill="#003866"/>
</svg>
